<svg width="16" height="16" viewBox="0 0 16 16" fill="none" xmlns="http://www.w3.org/2000/svg">
<path d="M2.16667 5.5V12.1667M5.91667 5.5V12.1667M10.0833 5.5V12.1667M13.8333 5.5V12.1667M0.5 13.5L0.5 14.1667C0.5 14.6334 0.5 14.8667 0.590828 15.045C0.670722 15.2018 0.798206 15.3293 0.955008 15.4092C1.13327 15.5 1.36662 15.5 1.83333 15.5H14.1667C14.6334 15.5 14.8667 15.5 15.045 15.4092C15.2018 15.3293 15.3293 15.2018 15.4092 15.045C15.5 14.8667 15.5 14.6334 15.5 14.1667V13.5C15.5 13.0333 15.5 12.7999 15.4092 12.6217C15.3293 12.4649 15.2018 12.3374 15.045 12.2575C14.8667 12.1667 14.6334 12.1667 14.1667 12.1667H1.83333C1.36662 12.1667 1.13327 12.1667 0.955008 12.2575C0.798206 12.3374 0.670722 12.4649 0.590828 12.6217C0.5 12.7999 0.5 13.0333 0.5 13.5ZM7.71076 0.564272L1.54409 1.93464C1.17154 2.01743 0.985267 2.05883 0.846221 2.159C0.723575 2.24736 0.627273 2.36741 0.567624 2.5063C0.5 2.66377 0.5 2.85459 0.5 3.23623L0.5 4.16666C0.5 4.63337 0.5 4.86673 0.590828 5.04499C0.670722 5.20179 0.798206 5.32927 0.955008 5.40917C1.13327 5.5 1.36662 5.5 1.83333 5.5H14.1667C14.6334 5.5 14.8667 5.5 15.045 5.40917C15.2018 5.32927 15.3293 5.20179 15.4092 5.04499C15.5 4.86673 15.5 4.63337 15.5 4.16666V3.23623C15.5 2.85459 15.5 2.66377 15.4324 2.5063C15.3727 2.36741 15.2764 2.24736 15.1538 2.159C15.0147 2.05883 14.8285 2.01743 14.4559 1.93464L8.28924 0.564272C8.1813 0.540286 8.12733 0.528293 8.0728 0.52351C8.02436 0.519263 7.97564 0.519263 7.9272 0.52351C7.87267 0.528293 7.8187 0.540286 7.71076 0.564272Z" stroke="#4E5DBC" stroke-linecap="round" stroke-linejoin="round"/>
</svg>
