<svg width="432" height="114" viewBox="0 0 432 114" fill="none" xmlns="http://www.w3.org/2000/svg">
<path d="M105.988 69.7249C105.991 74.4505 105.08 79.0598 103.274 83.4229C101.465 87.7927 98.854 91.697 95.5183 95.0358C92.1727 98.3781 88.265 100.985 83.9017 102.791C79.545 104.594 74.9456 105.511 70.2331 105.511H70.2065H70.1998H70.0602C62.5108 105.511 55.0181 103.05 48.9453 98.5776C42.8327 94.0748 38.2399 87.5965 35.9552 80.1173C34.9309 76.7452 34.4121 73.2566 34.4187 69.7382V43.3497C34.422 40.8355 35.3998 38.4744 37.179 36.6952C38.9583 34.9193 41.3195 33.9416 43.8271 33.9383C46.338 33.9449 48.6992 34.9293 50.4752 36.7018C52.2478 38.4777 53.2288 40.8389 53.2355 43.3464V69.7282C53.2388 74.2576 55.0081 78.521 58.2207 81.7235C60.6019 84.098 63.605 85.6976 66.9041 86.3461C70.1998 87.0012 73.5887 86.6654 76.6982 85.3784C79.8044 84.0914 82.4351 81.9364 84.3074 79.1396C86.1831 76.3461 87.1775 73.0937 87.1842 69.7249V16.9712C87.1842 15.7307 87.4236 14.5169 87.8992 13.3696C88.3714 12.2256 89.0565 11.198 89.9378 10.32C90.8158 9.44539 91.8401 8.757 92.9875 8.28144C95.2789 7.33698 97.8896 7.33365 100.184 8.28144C101.332 8.757 102.356 9.44539 103.234 10.32C104.112 11.198 104.797 12.2256 105.273 13.3696C105.748 14.5169 105.988 15.7307 105.988 16.9712V69.7249ZM31.8346 31.3477C28.6287 34.5535 26.8594 38.8169 26.8561 43.3464V96.1034C26.8561 98.6142 25.8783 100.975 24.0991 102.755C20.5472 106.313 14.3481 106.313 10.793 102.755C9.01706 100.975 8.03931 98.6142 8.03931 96.1034V43.3497C8.04596 34.773 11.1355 26.4757 16.7393 19.9842C22.3464 13.4926 30.102 9.22923 38.5858 7.97216C40.3318 7.71276 42.0844 7.58306 43.8304 7.58306C50.5716 7.58306 57.223 9.49195 62.9764 13.1335C65.6935 14.8528 68.1446 16.918 70.2797 19.2592C70.2996 19.2392 70.3129 19.2159 70.3329 19.196L70.3828 19.3855C73.8914 23.2665 76.5386 27.8957 78.0784 32.9705L78.2247 33.4528C79.1593 36.6719 79.6315 40.0008 79.6348 43.3464V69.7249C79.6348 71.5905 79.0861 73.3963 78.0485 74.946C77.0109 76.4957 75.5542 77.6929 73.8315 78.4113C72.7107 78.8769 71.5268 79.0963 70.3329 79.1096V79.1263C70.2863 79.1263 70.2431 79.113 70.1965 79.113C69.5979 79.113 68.9959 79.0731 68.3973 78.9533C68.0515 78.8868 67.7156 78.7804 67.383 78.674V78.6274C67.1568 78.5543 66.924 78.5177 66.7045 78.4246C64.9818 77.7062 63.5252 76.509 62.4876 74.9593C61.4499 73.4063 60.9012 71.6005 60.9012 69.7382V45.8472H60.8946V43.343C60.8879 41.0916 60.4489 38.9001 59.5876 36.8315C58.7229 34.7597 57.4757 32.904 55.8827 31.3177C54.2897 29.7348 52.4273 28.501 50.3455 27.6463C48.2669 26.7916 46.0586 26.3327 43.8304 26.3726C39.3008 26.3759 35.0406 28.1451 31.8346 31.3477ZM108.572 4.97914C105.366 1.77661 101.109 0.0107193 96.5826 0.00406647H96.5759C92.0497 0.0173721 87.7961 1.78658 84.5968 4.98911C81.4041 8.19165 79.6415 12.4451 79.6348 16.9712V18.8767C74.8658 11.9096 68.1412 6.4557 60.2327 3.22324C50.3787 -0.794067 39.4239 -1.07009 29.3736 2.47498C20.8798 5.48795 13.6398 10.9685 8.43839 18.3247C3.23701 25.6842 0.483336 34.3374 0.476685 43.3464V96.1034C0.476685 100.636 2.24262 104.896 5.44859 108.102C8.65124 111.308 12.9148 113.074 17.4477 113.074C21.9806 113.074 26.2408 111.308 29.4468 108.102C32.6528 104.896 34.4187 100.636 34.4187 96.1034V94.2111C39.1911 101.175 45.909 106.629 53.8175 109.855C63.6649 113.872 74.6164 114.135 84.6633 110.6C93.1538 107.59 100.387 102.106 105.592 94.7498C110.79 87.3903 113.544 78.7438 113.55 69.7382V16.9678C113.544 12.4417 111.774 8.18501 108.572 4.97914Z" fill="url(#paint0_linear_4_134)"/>
<path d="M430.952 70.7835H386.781C388.15 74.623 390.186 77.5277 392.891 79.4975C395.628 81.4674 398.934 82.4523 402.806 82.4523C405.845 82.4523 408.382 81.8513 410.419 80.6494C412.455 79.4141 414.175 77.5945 415.577 75.1906H429.95C429.015 77.7948 427.98 79.965 426.845 81.7011C425.076 84.3053 422.939 86.6257 420.435 88.6623C417.964 90.6989 415.26 92.2514 412.322 93.3197C409.417 94.4215 405.995 94.9724 402.055 94.9724C392.54 94.9724 384.911 91.4334 379.168 84.3553C374.661 78.7463 372.408 72.1524 372.408 64.5736C372.408 58.9645 373.726 53.7729 376.364 48.9985C379.002 44.1908 382.657 40.4849 387.332 37.8807C392.039 35.2431 397.164 33.9243 402.706 33.9243C408.082 33.9243 413.023 35.193 417.53 37.7304C422.037 40.2345 425.543 43.7902 428.047 48.3976C430.551 52.9716 431.803 57.8795 431.803 63.1212C431.803 65.6586 431.519 68.2127 430.952 70.7835ZM417.831 59.7658C416.996 55.4589 415.21 52.1703 412.472 49.9C409.734 47.5963 406.345 46.4444 402.306 46.4444C399.301 46.4444 396.663 47.1122 394.393 48.4476C392.156 49.7497 390.286 51.5693 388.784 53.9064C387.816 55.4422 387.014 57.3954 386.38 59.7658H417.831Z" fill="white"/>
<path d="M352.223 93.1196V17.1976H365.845V93.1196H352.223Z" fill="white"/>
<path d="M285.815 93.1196V17.1976H299.436V41.3364C304.411 36.6288 310.354 34.2751 317.265 34.2751C322.273 34.2751 326.997 35.5772 331.438 38.1813C335.878 40.7521 339.384 44.4581 341.955 49.2992C344.526 54.1403 345.811 59.1484 345.811 64.3233C345.811 69.2646 344.609 74.2727 342.205 79.3475C339.835 84.3889 336.479 88.2618 332.139 90.9662C327.832 93.6371 322.874 94.9726 317.265 94.9726C313.192 94.9726 309.686 94.2882 306.748 92.9193C303.843 91.517 301.039 89.2968 298.335 86.2586V93.1196H285.815ZM298.635 63.8726C298.635 69.7153 300.355 74.2727 303.793 77.5446C307.266 80.8165 311.272 82.4525 315.813 82.4525C320.42 82.4525 324.293 80.7998 327.431 77.4945C330.603 74.1892 332.189 69.8823 332.189 64.5737C332.189 59.332 330.57 55.0585 327.331 51.7532C324.126 48.4145 320.186 46.7451 315.512 46.7451C312.474 46.7451 309.619 47.5297 306.948 49.0989C304.278 50.6681 302.224 52.8215 300.789 55.5593C299.353 58.2636 298.635 61.0347 298.635 63.8726Z" fill="white"/>
<path d="M250.256 94.9725C246.249 94.9725 242.393 94.2046 238.687 92.6688C234.981 91.133 231.793 89.0296 229.122 86.3586C226.451 83.6543 224.364 80.7329 222.861 77.5946C220.892 73.5214 219.907 69.1977 219.907 64.6237C219.907 59.3486 221.242 54.3238 223.913 49.5495C226.618 44.7418 230.374 41.0024 235.181 38.3315C239.989 35.6271 245.014 34.275 250.256 34.275C255.531 34.275 260.555 35.6104 265.33 38.2814C270.104 40.9524 273.81 44.6583 276.448 49.3993C279.085 54.1068 280.404 59.215 280.404 64.7239C280.404 68.6302 279.753 72.3027 278.451 75.7416C277.182 79.1471 275.429 82.1185 273.192 84.6559C270.989 87.1933 268.685 89.1632 266.281 90.5654C263.911 91.9677 261.34 93.0527 258.569 93.8206C255.798 94.5885 253.027 94.9725 250.256 94.9725ZM250.256 82.4524C255.03 82.4524 258.969 80.6996 262.074 77.1939C265.213 73.6883 266.782 69.5483 266.782 64.774C266.782 61.5688 266.014 58.5473 264.478 55.7094C262.943 52.8381 260.856 50.6346 258.218 49.0988C255.614 47.5296 252.977 46.745 250.306 46.745C247.668 46.745 244.98 47.5129 242.243 49.0487C239.538 50.5845 237.402 52.738 235.832 55.5091C234.297 58.2802 233.529 61.3518 233.529 64.7239C233.529 68.0292 234.297 71.0674 235.832 73.8385C237.368 76.6097 239.438 78.7464 242.042 80.2488C244.68 81.7179 247.418 82.4524 250.256 82.4524Z" fill="white"/>
<path d="M150.643 93.1196V17.1976H166.619L198.019 72.3862H198.22V17.1976H212.292V93.1196H196.617L164.916 37.9309H164.716V93.1196H150.643Z" fill="white"/>
<defs>
<linearGradient id="paint0_linear_4_134" x1="-4.51185" y1="112.238" x2="112.902" y2="-13.5469" gradientUnits="userSpaceOnUse">
<stop offset="0.05" stop-color="white"/>
<stop offset="0.38" stop-color="#A7B3FF"/>
<stop offset="1" stop-color="#74A4FF"/>
</linearGradient>
</defs>
</svg>
