<svg width="432" height="114" viewBox="0 0 432 114" fill="none" xmlns="http://www.w3.org/2000/svg">
<path d="M105.511 69.7249C105.514 74.4505 104.603 79.0598 102.797 83.4229C100.988 87.7927 98.3773 91.697 95.0417 95.0358C91.696 98.3781 87.7883 100.985 83.425 102.791C79.0684 104.594 74.4689 105.511 69.7564 105.511H69.7298H69.7232H69.5835C62.0342 105.511 54.5414 103.05 48.4687 98.5776C42.356 94.0748 37.7632 87.5965 35.4785 80.1173C34.4542 76.7452 33.9354 73.2566 33.942 69.7382V43.3497C33.9454 40.8355 34.9231 38.4744 36.7024 36.6952C38.4816 34.9193 40.8428 33.9416 43.3504 33.9383C45.8613 33.9449 48.2226 34.9293 49.9985 36.7018C51.7711 38.4777 52.7521 40.8389 52.7588 43.3464V69.7282C52.7621 74.2576 54.5314 78.521 57.744 81.7235C60.1252 84.098 63.1283 85.6976 66.4274 86.3461C69.7232 87.0012 73.112 86.6654 76.2216 85.3784C79.3278 84.0914 81.9584 81.9364 83.8308 79.1396C85.7064 76.3461 86.7008 73.0937 86.7075 69.7249V16.9712C86.7075 15.7307 86.9469 14.5169 87.4225 13.3696C87.8947 12.2256 88.5798 11.198 89.4612 10.32C90.3391 9.44539 91.3634 8.757 92.5108 8.28144C94.8022 7.33698 97.4129 7.33365 99.7076 8.28144C100.855 8.757 101.879 9.44539 102.757 10.32C103.635 11.198 104.32 12.2256 104.796 13.3696C105.271 14.5169 105.511 15.7307 105.511 16.9712V69.7249ZM31.358 31.3477C28.152 34.5535 26.3827 38.8169 26.3794 43.3464V96.1034C26.3794 98.6142 25.4016 100.975 23.6224 102.755C20.0706 106.313 13.8715 106.313 10.3163 102.755C8.54038 100.975 7.56263 98.6142 7.56263 96.1034V43.3497C7.56928 34.773 10.6588 26.4757 16.2626 19.9842C21.8698 13.4926 29.6253 9.22923 38.1091 7.97216C39.8551 7.71276 41.6077 7.58306 43.3537 7.58306C50.0949 7.58306 56.7463 9.49195 62.4998 13.1335C65.2168 14.8528 67.6679 16.918 69.803 19.2592C69.8229 19.2392 69.8362 19.2159 69.8562 19.196L69.9061 19.3855C73.4147 23.2665 76.0619 27.8957 77.6017 32.9705L77.7481 33.4528C78.6826 36.6719 79.1548 40.0008 79.1582 43.3464V69.7249C79.1582 71.5905 78.6094 73.3963 77.5718 74.946C76.5342 76.4957 75.0775 77.6929 73.3548 78.4113C72.2341 78.8769 71.0501 79.0963 69.8562 79.1096V79.1263C69.8096 79.1263 69.7664 79.113 69.7198 79.113C69.1212 79.113 68.5193 79.0731 67.9206 78.9533C67.5748 78.8868 67.2389 78.7804 66.9063 78.674V78.6274C66.6802 78.5543 66.4473 78.5177 66.2279 78.4246C64.5051 77.7062 63.0485 76.509 62.0109 74.9593C60.9733 73.4063 60.4245 71.6005 60.4245 69.7382V45.8472H60.4179V43.343C60.4112 41.0916 59.9722 38.9001 59.1109 36.8315C58.2462 34.7597 56.9991 32.904 55.4061 31.3177C53.813 29.7348 51.9507 28.501 49.8688 27.6463C47.7902 26.7916 45.582 26.3327 43.3537 26.3726C38.8241 26.3759 34.5639 28.1451 31.358 31.3477ZM108.095 4.97914C104.889 1.77661 100.632 0.0107193 96.1059 0.00406647H96.0992C91.573 0.0173721 87.3194 1.78658 84.1201 4.98911C80.9274 8.19165 79.1648 12.4451 79.1582 16.9712V18.8767C74.3891 11.9096 67.6646 6.4557 59.7561 3.22324C49.902 -0.794067 38.9472 -1.07009 28.8969 2.47498C20.4031 5.48795 13.1631 10.9685 7.96171 18.3247C2.76032 25.6842 0.00665139 34.3374 0 43.3464V96.1034C0 100.636 1.76594 104.896 4.97191 108.102C8.17455 111.308 12.4381 113.074 16.971 113.074C21.5039 113.074 25.7641 111.308 28.9701 108.102C32.1761 104.896 33.942 100.636 33.942 96.1034V94.2111C38.7144 101.175 45.4323 106.629 53.3408 109.855C63.1882 113.872 74.1397 114.135 84.1866 110.6C92.6771 107.59 99.9105 102.106 105.115 94.7498C110.313 87.3903 113.067 78.7438 113.074 69.7382V16.9678C113.067 12.4417 111.298 8.18501 108.095 4.97914Z" fill="black"/>
<path d="M430.475 70.7835H386.304C387.673 74.623 389.709 77.5277 392.414 79.4975C395.152 81.4673 398.457 82.4523 402.33 82.4523C405.368 82.4523 407.905 81.8513 409.942 80.6494C411.979 79.414 413.698 77.5944 415.1 75.1906H429.473C428.539 77.7948 427.504 79.9649 426.368 81.701C424.599 84.3052 422.462 86.6256 419.958 88.6622C417.487 90.6988 414.783 92.2513 411.845 93.3197C408.94 94.4215 405.518 94.9724 401.579 94.9724C392.063 94.9724 384.434 91.4334 378.692 84.3553C374.185 78.7463 371.931 72.1524 371.931 64.5735C371.931 58.9645 373.25 53.7728 375.887 48.9985C378.525 44.1908 382.181 40.4848 386.855 37.8806C391.562 35.2431 396.687 33.9243 402.23 33.9243C407.605 33.9243 412.546 35.193 417.053 37.7304C421.561 40.2344 425.066 43.7901 427.57 48.3975C430.074 52.9716 431.326 57.8794 431.326 63.1212C431.326 65.6586 431.043 68.2127 430.475 70.7835ZM417.354 59.7658C416.519 55.4589 414.733 52.1703 411.995 49.9C409.258 47.5963 405.869 46.4444 401.829 46.4444C398.824 46.4444 396.187 47.1121 393.916 48.4476C391.679 49.7497 389.81 51.5693 388.307 53.9064C387.339 55.4422 386.538 57.3953 385.903 59.7658H417.354Z" fill="black"/>
<path d="M351.746 93.1196V17.1976H365.368V93.1196H351.746Z" fill="black"/>
<path d="M285.338 93.1196V17.1976H298.96V41.3364C303.934 36.6288 309.877 34.2751 316.788 34.2751C321.796 34.2751 326.521 35.5772 330.961 38.1813C335.402 40.7521 338.907 44.4581 341.478 49.2992C344.049 54.1403 345.334 59.1484 345.334 64.3233C345.334 69.2646 344.132 74.2727 341.728 79.3475C339.358 84.3889 336.003 88.2618 331.662 90.9662C327.355 93.6371 322.397 94.9726 316.788 94.9726C312.715 94.9726 309.209 94.2882 306.271 92.9193C303.367 91.517 300.562 89.2968 297.858 86.2586V93.1196H285.338ZM298.158 63.8726C298.158 69.7153 299.878 74.2727 303.317 77.5446C306.789 80.8165 310.795 82.4525 315.336 82.4525C319.943 82.4525 323.816 80.7998 326.955 77.4945C330.126 74.1892 331.712 69.8823 331.712 64.5737C331.712 59.332 330.093 55.0585 326.854 51.7532C323.649 48.4145 319.71 46.7451 315.035 46.7451C311.997 46.7451 309.143 47.5297 306.472 49.0989C303.801 50.6681 301.747 52.8215 300.312 55.5593C298.876 58.2636 298.158 61.0347 298.158 63.8726Z" fill="black"/>
<path d="M249.779 94.9725C245.772 94.9725 241.916 94.2046 238.21 92.6688C234.504 91.133 231.316 89.0296 228.645 86.3586C225.974 83.6543 223.887 80.7329 222.385 77.5946C220.415 73.5214 219.43 69.1977 219.43 64.6237C219.43 59.3486 220.766 54.3238 223.436 49.5495C226.141 44.7418 229.897 41.0024 234.705 38.3315C239.512 35.6271 244.537 34.275 249.779 34.275C255.054 34.275 260.079 35.6104 264.853 38.2814C269.627 40.9524 273.333 44.6583 275.971 49.3993C278.608 54.1068 279.927 59.215 279.927 64.7239C279.927 68.6302 279.276 72.3027 277.974 75.7416C276.705 79.1471 274.953 82.1185 272.716 84.6559C270.512 87.1933 268.208 89.1632 265.805 90.5654C263.434 91.9677 260.863 93.0527 258.092 93.8206C255.321 94.5885 252.55 94.9725 249.779 94.9725ZM249.779 82.4524C254.553 82.4524 258.493 80.6996 261.598 77.1939C264.736 73.6883 266.305 69.5483 266.305 64.774C266.305 61.5688 265.537 58.5473 264.002 55.7094C262.466 52.8381 260.379 50.6346 257.742 49.0988C255.137 47.5296 252.5 46.745 249.829 46.745C247.191 46.745 244.504 47.5129 241.766 49.0487C239.062 50.5845 236.925 52.738 235.356 55.5091C233.82 58.2802 233.052 61.3518 233.052 64.7239C233.052 68.0292 233.82 71.0674 235.356 73.8385C236.891 76.6097 238.961 78.7464 241.566 80.2488C244.203 81.7179 246.941 82.4524 249.779 82.4524Z" fill="black"/>
<path d="M150.167 93.1196V17.1976H166.142L197.543 72.3862H197.743V17.1976H211.816V93.1196H196.14L164.439 37.9309H164.239V93.1196H150.167Z" fill="black"/>
</svg>
