<svg width="24" height="24" viewBox="0 0 24 24" fill="none" xmlns="http://www.w3.org/2000/svg">
<path d="M22.3948 14.7992C22.3956 15.8022 22.2022 16.7805 21.8189 17.7066C21.4348 18.6341 20.8807 19.4627 20.1727 20.1714C19.4626 20.8808 18.6332 21.4342 17.7071 21.8175C16.7824 22.2001 15.8062 22.3948 14.8059 22.3948H14.8002H14.7988H14.7692C13.1669 22.3948 11.5765 21.8726 10.2875 20.9231C8.99013 19.9674 8.0153 18.5924 7.53036 17.0049C7.31295 16.2892 7.20283 15.5488 7.20424 14.802V9.20094C7.20495 8.66733 7.41247 8.16622 7.79012 7.78855C8.16777 7.41162 8.66897 7.20413 9.20118 7.20339C9.73414 7.20479 10.2353 7.41377 10.6123 7.78995C10.9884 8.16688 11.1967 8.66807 11.1982 9.20028V14.7998C11.1988 15.7612 11.5743 16.6662 12.2562 17.3459C12.7616 17.8499 13.3991 18.1893 14.0993 18.327C14.7988 18.4661 15.5181 18.3948 16.1781 18.1216C16.8374 17.8485 17.3958 17.3911 17.7932 16.7975C18.1913 16.2045 18.4024 15.5142 18.4038 14.7992V3.60211C18.4038 3.33882 18.4546 3.08119 18.5555 2.83766C18.6558 2.59485 18.8012 2.37673 18.9883 2.19039C19.1746 2.00475 19.392 1.85864 19.6356 1.7577C20.1219 1.55723 20.676 1.55653 21.163 1.7577C21.4066 1.85864 21.624 2.00475 21.8103 2.19039C21.9967 2.37673 22.1421 2.59485 22.2431 2.83766C22.344 3.08119 22.3948 3.33882 22.3948 3.60211V14.7992ZM6.65577 6.65353C5.9753 7.33402 5.59977 8.23886 5.59907 9.20028V20.398C5.59907 20.9309 5.39153 21.4321 5.01389 21.8098C4.26 22.565 2.94423 22.565 2.18965 21.8098C1.8127 21.4321 1.60518 20.9309 1.60518 20.398V9.20094C1.60659 7.3806 2.26235 5.61945 3.45177 4.24161C4.64188 2.86378 6.28801 1.95887 8.08871 1.69205C8.45933 1.63699 8.83129 1.60947 9.20193 1.60947C10.6327 1.60947 12.0445 2.01463 13.2656 2.78755C13.8424 3.15247 14.3626 3.59081 14.8158 4.08774C14.82 4.08351 14.8228 4.07856 14.827 4.07433L14.8376 4.11456C15.5824 4.9383 16.1443 5.92085 16.4711 6.998L16.5021 7.1003C16.7005 7.78358 16.8007 8.4902 16.8014 9.20028V14.7992C16.8014 15.1951 16.6849 15.5784 16.4647 15.9073C16.2445 16.2363 15.9353 16.4904 15.5696 16.6428C15.3318 16.7417 15.0805 16.7883 14.827 16.7911V16.7946C14.8172 16.7946 14.808 16.7917 14.7982 16.7917C14.6711 16.7917 14.5433 16.7833 14.4163 16.7579C14.3428 16.7438 14.2716 16.7212 14.2009 16.6986V16.6887C14.1529 16.6732 14.1035 16.6654 14.057 16.6456C13.6913 16.4932 13.3821 16.2391 13.1619 15.9102C12.9417 15.5806 12.8252 15.1973 12.8252 14.802V9.73109H12.8238V9.19954C12.8224 8.72168 12.7292 8.25656 12.5464 7.8175C12.3629 7.37778 12.0981 6.98387 11.76 6.64718C11.4219 6.31119 11.0266 6.04932 10.5847 5.86791C10.1435 5.68651 9.67482 5.5891 9.20193 5.59757C8.24048 5.59827 7.33624 5.97379 6.65577 6.65353ZM22.9433 1.05678C22.2628 0.37704 21.3593 0.00223164 20.3986 0.000816926H20.3972C19.4365 0.00364635 18.5337 0.379157 17.8546 1.0589C17.1769 1.73864 16.8028 2.64143 16.8014 3.60211V4.00656C15.7892 2.52779 14.3619 1.37018 12.6833 0.68409C10.5917 -0.168585 8.26659 -0.227175 6.13341 0.52527C4.33059 1.16478 2.79389 2.32803 1.68988 3.88939C0.585882 5.45146 0.00141177 7.2881 0 9.20028V20.398C0 21.3601 0.374823 22.2643 1.05529 22.9448C1.73506 23.6252 2.64001 24 3.60212 24C4.56424 24 5.46847 23.6252 6.14894 22.9448C6.82942 22.2643 7.20424 21.3601 7.20424 20.398V19.9964C8.21718 21.4744 9.64305 22.632 11.3217 23.3167C13.4117 24.1694 15.7363 24.2252 17.8687 23.4748C19.6708 22.836 21.2061 21.6721 22.3109 20.1107C23.4141 18.5486 23.9986 16.7134 24 14.802V3.6014C23.9986 2.64073 23.6231 1.73723 22.9433 1.05678Z" fill="url(#paint0_linear_70_1794)"/>
<defs>
<linearGradient id="paint0_linear_70_1794" x1="-1.05883" y1="23.8227" x2="23.8625" y2="-2.8754" gradientUnits="userSpaceOnUse">
<stop offset="0.05" stop-color="#A0ADFF"/>
<stop offset="1" stop-color="#4C52D8"/>
</linearGradient>
</defs>
</svg>
